<?xml version="1.0" encoding="UTF-8" standalone="no"?>
<!DOCTYPE svg PUBLIC "-//W3C//DTD SVG 1.1//EN"
 "http://www.w3.org/Graphics/SVG/1.1/DTD/svg11.dtd">
<!-- Generated by graphviz version 2.43.0 (0)
 -->
<!-- Title: G Pages: 1 -->
<svg width="376pt" height="194pt"
 viewBox="0.00 0.00 376.03 194.43" xmlns="http://www.w3.org/2000/svg" xmlns:xlink="http://www.w3.org/1999/xlink">
<g id="graph0" class="graph" transform="scale(1 1) rotate(0) translate(4 190.43)">
<title>G</title><style>.edge>path:hover{stroke-width:8}</style>
<polygon fill="white" stroke="transparent" points="-4,4 -4,-190.43 372.03,-190.43 372.03,4 -4,4"/>
<!-- dpkt -->
<g id="node1" class="node">
<title>dpkt</title><style>.edge>path:hover{stroke-width:8}</style>
<ellipse fill="#c04040" stroke="black" cx="27" cy="-90" rx="27" ry="18"/>
<text text-anchor="middle" x="27" y="-87.5" font-family="Helvetica,sans-Serif" font-size="10.00" fill="#ffffff">dpkt</text>
</g>
<!-- pcap_analyser -->
<g id="node4" class="node">
<title>pcap_analyser</title><style>.edge>path:hover{stroke-width:8}</style>
<ellipse fill="#409662" stroke="black" cx="158" cy="-18" rx="51.43" ry="18"/>
<text text-anchor="middle" x="158" y="-15.5" font-family="Helvetica,sans-Serif" font-size="10.00" fill="#ffffff">pcap_analyser</text>
</g>
<!-- dpkt&#45;&gt;pcap_analyser -->
<g id="edge1" class="edge">
<title>dpkt&#45;&gt;pcap_analyser</title><style>.edge>path:hover{stroke-width:8}</style>
<path fill="none" stroke="black" d="M47.47,-78.06C67.38,-67.42 98.04,-51.04 122.03,-38.22"/>
<polygon fill="#c04040" stroke="black" points="123.69,-41.3 130.86,-33.5 120.39,-35.13 123.69,-41.3"/>
</g>
<!-- geoip2 -->
<g id="node2" class="node">
<title>geoip2</title><style>.edge>path:hover{stroke-width:8}</style>
<ellipse fill="#a9c247" stroke="black" cx="101" cy="-90" rx="29.37" ry="18"/>
<text text-anchor="middle" x="101" y="-87.5" font-family="Helvetica,sans-Serif" font-size="10.00" fill="#000000">geoip2</text>
</g>
<!-- geoip2&#45;&gt;pcap_analyser -->
<g id="edge2" class="edge">
<title>geoip2&#45;&gt;pcap_analyser</title><style>.edge>path:hover{stroke-width:8}</style>
<path fill="none" stroke="black" d="M113.65,-73.46C120.82,-64.65 129.96,-53.43 138.08,-43.46"/>
<polygon fill="#a9c247" stroke="black" points="140.99,-45.43 144.59,-35.47 135.56,-41.01 140.99,-45.43"/>
</g>
<!-- geoip2_database -->
<g id="node3" class="node">
<title>geoip2_database</title><style>.edge>path:hover{stroke-width:8}</style>
<ellipse fill="#9eb34c" stroke="black" cx="158" cy="-165.21" rx="43.68" ry="21.43"/>
<text text-anchor="middle" x="158" y="-168.21" font-family="Helvetica,sans-Serif" font-size="10.00" fill="#000000">geoip2.</text>
<text text-anchor="middle" x="158" y="-157.21" font-family="Helvetica,sans-Serif" font-size="10.00" fill="#000000">database</text>
</g>
<!-- geoip2_database&#45;&gt;pcap_analyser -->
<g id="edge3" class="edge">
<title>geoip2_database&#45;&gt;pcap_analyser</title><style>.edge>path:hover{stroke-width:8}</style>
<path fill="none" stroke="black" d="M158,-143.72C158,-118.2 158,-74.55 158,-46.25"/>
<polygon fill="#9eb34c" stroke="black" points="161.5,-46.22 158,-36.22 154.5,-46.22 161.5,-46.22"/>
</g>
<!-- prettytable -->
<g id="node5" class="node">
<title>prettytable</title><style>.edge>path:hover{stroke-width:8}</style>
<ellipse fill="#537bb6" stroke="black" cx="228" cy="-90" rx="41.59" ry="18"/>
<text text-anchor="middle" x="228" y="-87.5" font-family="Helvetica,sans-Serif" font-size="10.00" fill="#ffffff">prettytable</text>
</g>
<!-- prettytable&#45;&gt;pcap_analyser -->
<g id="edge4" class="edge">
<title>prettytable&#45;&gt;pcap_analyser</title><style>.edge>path:hover{stroke-width:8}</style>
<path fill="none" stroke="black" d="M212.12,-73.12C203.12,-64.12 191.68,-52.68 181.65,-42.65"/>
<polygon fill="#537bb6" stroke="black" points="183.85,-39.9 174.31,-35.31 178.9,-44.85 183.85,-39.9"/>
</g>
<!-- simplekml -->
<g id="node6" class="node">
<title>simplekml</title><style>.edge>path:hover{stroke-width:8}</style>
<ellipse fill="#a640c0" stroke="black" cx="328" cy="-90" rx="40.06" ry="18"/>
<text text-anchor="middle" x="328" y="-87.5" font-family="Helvetica,sans-Serif" font-size="10.00" fill="#ffffff">simplekml</text>
</g>
<!-- simplekml&#45;&gt;pcap_analyser -->
<g id="edge5" class="edge">
<title>simplekml&#45;&gt;pcap_analyser</title><style>.edge>path:hover{stroke-width:8}</style>
<path fill="none" stroke="black" d="M299.55,-77.28C272.13,-66 230.37,-48.8 199.3,-36"/>
<polygon fill="#a640c0" stroke="black" points="200.61,-32.76 190.03,-32.19 197.94,-39.23 200.61,-32.76"/>
</g>
</g>
</svg>
